<svg xmlns="http://www.w3.org/2000/svg" version="1.1" xmlns:xlink="http://www.w3.org/1999/xlink" xmlns:svgjs="http://svgjs.dev/svgjs" width="1000" height="1000" viewBox="0 0 1000 1000"><rect width="1000" height="1000" fill="#ffffff"></rect><g transform="matrix(0.16722408026755853,0,0,0.16722408026755853,416.1423505177242,150.28340080971657)"><svg viewBox="0 0 59 247" data-background-color="#ffffff" preserveAspectRatio="xMidYMid meet" height="4186" width="1000" xmlns="http://www.w3.org/2000/svg" xmlns:xlink="http://www.w3.org/1999/xlink"><g id="tight-bounds" transform="matrix(1,0,0,1,0.08665589033654442,-0.09999999999999432)"><svg viewBox="0 0 58.82668821932694 247.2" height="247.2" width="58.82668821932694"><g><svg viewBox="0 0 131.67108 553.3048342725897" height="247.2" width="58.82668821932694"><g><rect width="131.67108" height="22.292751110399998" x="0" y="173.9823512517898" fill="#000000" opacity="1" stroke-width="0" stroke="transparent" fill-opacity="1" class="rect-r$-0" data-fill-palette-color="primary" rx="1%" id="r$-0" data-palette-color="#000000"></rect></g><g><rect width="131.67108" height="22.292751110399998" x="0" y="225.4540959621898" fill="#000000" opacity="1" stroke-width="0" stroke="transparent" fill-opacity="1" class="rect-r$-1" data-fill-palette-color="primary" rx="1%" id="r$-1" data-palette-color="#000000"></rect></g><g transform="matrix(1,0,0,1,0.32753999999999905,306.10483427258976)"><svg viewBox="0 0 131.016 247.2" height="247.2" width="131.016"><g id="textblocktransform"><svg viewBox="0 0 131.016 247.2" height="247.2" width="131.016" id="textblock"><g><svg viewBox="0 0 131.016 247.2" height="247.2" width="131.016"><g transform="matrix(1,0,0,1,0,0)"><svg width="131.016" viewBox="3.1 -35 18.549999999999997 35" height="247.2" data-palette-color="#000000"><path d="M18.1 0L6.7 0Q5.2 0 4.15-1.05 3.1-2.1 3.1-3.6L3.1-3.6 3.1-11.2 7.75-10.15 7.75-6.45Q7.75-5.7 8.28-5.18 8.8-4.65 9.55-4.65L9.55-4.65 15.25-4.65Q15.95-4.65 16.5-5.18 17.05-5.7 17.05-6.45L17.05-6.45 17.05-35 21.65-35 21.65-3.6Q21.65-2.1 20.6-1.05 19.55 0 18.1 0L18.1 0Z" opacity="1" transform="matrix(1,0,0,1,0,0)" fill="#000000" class="wordmark-text-0" data-fill-palette-color="primary" id="text-0"></path></svg></g></svg></g></svg></g></svg></g><g transform="matrix(1,0,0,1,25.351596,0)"><svg viewBox="0 0 80.96788799999999 115.62436405178978" height="115.62436405178978" width="80.96788799999999"><g><svg xmlns="http://www.w3.org/2000/svg" xmlns:xlink="http://www.w3.org/1999/xlink" version="1.1" x="0" y="0" viewBox="124.60000000000002 68.49999999999997 262.59999999999997 375" enable-background="new 0 0 512 512" xml:space="preserve" height="115.62436405178978" width="80.96788799999999" class="icon-icon-0" data-fill-palette-color="accent" id="icon-0"><g fill="#000000" data-fill-palette-color="accent"><g fill="#000000" data-fill-palette-color="accent"><path d="M255.9 443.5l-8.7-4.5c-20.5-10.7-122.6-67.1-122.6-129.1l0.1-161.9 14.2-3.6c67.4-16.9 102.2-58 102.6-58.4l14.6-17.5 14.4 17.6c0.3 0.4 35.1 41.5 102.5 58.4l14.2 3.6-0.1 161.9c0 62.2-102.1 118.5-122.6 129.1L255.9 443.5zM162.3 176.9l-0.1 133c0 27.3 52.2 67.8 93.8 91.2 41.5-23.3 93.8-63.8 93.8-91.2l0.1-133c-45.8-14.1-77-37.3-93.8-52.3C239.3 139.6 208.1 162.7 162.3 176.9z" fill="#000000" data-fill-palette-color="accent"></path></g></g></svg></g></svg></g><g></g></svg></g><defs></defs></svg><rect width="58.82668821932694" height="247.2" fill="none" stroke="none" visibility="hidden"></rect></g></svg></g></svg>